<svg width="35" height="35" viewBox="0 0 35 35" fill="none" xmlns="http://www.w3.org/2000/svg">
<path d="M23.9098 6.63089L24.2897 7.09527L23.9098 6.63089ZM20.6532 5.28199L21.2502 5.22228L20.6532 5.28199ZM21.451 7.96128L21.6807 7.40695L21.451 7.96128ZM27.0294 6.40547L26.6051 6.82974L27.0294 6.40547ZM24.3487 6.27177L23.9687 5.8074L24.3487 6.27177ZM25.7322 5.4739L25.762 4.87464L25.7322 5.4739ZM28.7282 10.6513L28.2638 10.2713L28.7282 10.6513ZM28.5945 7.97057L29.0187 7.54631L28.5945 7.97057ZM29.526 9.26779L30.1253 9.2379L29.526 9.26779ZM29.7179 14.3468L29.7776 13.7498L29.7179 14.3468ZM28.369 11.0902L28.8334 11.4702L28.369 11.0902ZM27.0386 13.5489L26.4843 13.7785L27.0386 13.5489ZM30.2823 14.4032L30.2226 15.0002L30.2823 14.4032ZM31.8248 14.8173L31.3799 15.2199L31.8248 14.8173ZM30.2823 20.5968L30.342 21.1938L30.2823 20.5968ZM31.8248 20.1827L32.2697 20.5853L31.8248 20.1827ZM28.3696 23.9097L27.9052 24.2896L28.3696 23.9097ZM27.0392 21.451L27.5935 21.6806L27.0392 21.451ZM28.7282 24.3481L29.1926 23.9681L28.7282 24.3481ZM29.5261 25.7315L30.1254 25.7614L29.5261 25.7315ZM24.3487 28.7276L23.9688 29.1919L24.3487 28.7276ZM25.7322 29.5254L25.7023 28.9262L25.7322 29.5254ZM23.9098 28.3684L24.2898 27.9041L23.9098 28.3684ZM21.4511 27.0381L21.6807 27.5924L21.4511 27.0381ZM20.1827 31.8248L20.5853 32.2696L20.1827 31.8248ZM14.4032 30.2823L15.0003 30.2226L14.4032 30.2823ZM14.8173 31.8248L15.2199 31.3799L14.8173 31.8248ZM11.0902 28.369L11.4702 28.8334L11.0902 28.369ZM14.3468 29.7179L13.7498 29.7776L14.3468 29.7179ZM13.5489 27.0386L13.3193 27.593L13.5489 27.0386ZM7.97052 28.5945L7.54626 29.0188L7.97052 28.5945ZM10.6512 28.7282L10.2713 28.2638L10.6512 28.7282ZM9.26774 29.5261L9.23785 30.1253L9.26774 29.5261ZM6.27172 24.3487L5.80735 23.9688L6.27172 24.3487ZM6.40542 27.0294L6.82969 26.6052L6.40542 27.0294ZM5.47385 25.7322L4.87459 25.7621L5.47385 25.7322ZM5.28199 20.6532L5.22229 21.2502L5.28199 20.6532ZM6.6309 23.9097L7.09527 24.2897L6.6309 23.9097ZM7.96128 21.451L7.40695 21.6806L7.96128 21.451ZM3.17522 20.1827L2.73035 20.5853L3.17522 20.1827ZM4.71766 14.4032L4.65796 13.8062L4.71766 14.4032ZM3.17522 14.8173L3.62009 15.2199L3.17522 14.8173ZM6.63145 11.0902L6.16707 11.4701L6.63145 11.0902ZM5.28254 14.3467L5.34224 14.9438L5.28254 14.3467ZM7.96183 13.5489L7.4075 13.3193L7.96183 13.5489ZM6.40549 7.96991L6.82975 8.39418L6.40549 7.96991ZM6.27179 10.6506L5.80741 11.0305L6.27179 10.6506ZM5.47391 9.26713L6.07317 9.29702L5.47391 9.26713ZM10.6513 6.27111L11.0312 5.80674L10.6513 6.27111ZM7.97058 6.40481L7.54632 5.98055L7.97058 6.40481ZM9.2678 5.47324L9.23791 4.87398L9.2678 5.47324ZM14.3469 5.28141L14.9439 5.34112L14.3469 5.28141ZM11.0903 6.63032L10.7104 7.0947L11.0903 6.63032ZM13.549 7.9607L13.7786 8.51503L13.549 7.9607ZM20.5968 4.71765L19.9997 4.77735L20.5968 4.71765ZM20.1827 3.1752L20.5853 2.73033L20.1827 3.1752ZM14.4032 4.71765L13.8062 4.65795L14.4032 4.71765ZM14.8173 3.1752L15.2199 3.62008L14.8173 3.1752ZM16.3933 3.51666H18.6067V2.31666H16.3933V3.51666ZM14.9439 5.34112L15.0003 4.77735L13.8062 4.65795L13.7498 5.22171L14.9439 5.34112ZM10.2713 6.73549L10.7104 7.0947L11.4703 6.16595L11.0312 5.80674L10.2713 6.73549ZM6.82975 8.39418L8.39485 6.82908L7.54632 5.98055L5.98122 7.54565L6.82975 8.39418ZM7.09582 10.7102L6.73616 10.2707L5.80741 11.0305L6.16707 11.4701L7.09582 10.7102ZM4.77737 15.0002L5.34224 14.9438L5.22284 13.7497L4.65796 13.8062L4.77737 15.0002ZM3.51667 18.6067V16.3933H2.31667V18.6067H3.51667ZM5.34169 20.0562L4.77737 19.9997L4.65796 21.1938L5.22229 21.2502L5.34169 20.0562ZM6.73609 24.7287L7.09527 24.2897L6.16652 23.5298L5.80735 23.9688L6.73609 24.7287ZM8.39478 28.1703L6.82969 26.6052L5.98116 27.4537L7.54626 29.0188L8.39478 28.1703ZM10.7103 27.9046L10.2713 28.2638L11.0312 29.1926L11.4702 28.8334L10.7103 27.9046ZM15.0003 30.2226L14.9438 29.6582L13.7498 29.7776L13.8062 30.342L15.0003 30.2226ZM18.6067 31.4833H16.3933V32.6833H18.6067V31.4833ZM20.0562 29.6576L19.9997 30.2226L21.1938 30.342L21.2503 29.777L20.0562 29.6576ZM24.7287 28.2632L24.2898 27.9041L23.5299 28.8328L23.9688 29.1919L24.7287 28.2632ZM28.1703 26.6045L26.6052 28.1696L27.4537 29.0181L29.0188 27.453L28.1703 26.6045ZM27.9052 24.2896L28.2639 24.728L29.1926 23.9681L28.8339 23.5298L27.9052 24.2896ZM30.2226 19.9997L29.6588 20.0561L29.7782 21.2502L30.342 21.1938L30.2226 19.9997ZM31.4833 16.3933V18.6067H32.6833V16.3933H31.4833ZM29.6582 14.9438L30.2226 15.0002L30.342 13.8062L29.7776 13.7498L29.6582 14.9438ZM28.2638 10.2713L27.9046 10.7103L28.8334 11.4702L29.1925 11.0312L28.2638 10.2713ZM26.6051 6.82974L28.1702 8.39484L29.0187 7.54631L27.4536 5.98121L26.6051 6.82974ZM24.2897 7.09527L24.7286 6.73615L23.9687 5.8074L23.5298 6.16652L24.2897 7.09527ZM19.9997 4.77735L20.0562 5.34169L21.2502 5.22228L21.1938 4.65795L19.9997 4.77735ZM23.5298 6.16652C22.8787 6.69922 22.4428 7.05381 22.1033 7.25684C21.7645 7.45943 21.6869 7.40953 21.6807 7.40695L21.2214 8.5156C21.768 8.74201 22.2844 8.5467 22.7192 8.28675C23.1531 8.02724 23.6702 7.60215 24.2897 7.09527L23.5298 6.16652ZM20.0562 5.34169C20.1358 6.13818 20.2008 6.80436 20.3242 7.29472C20.4478 7.78593 20.6749 8.2892 21.2214 8.5156L21.6807 7.40695C21.6744 7.40437 21.5842 7.38476 21.4879 7.00196C21.3914 6.6183 21.3339 6.05934 21.2502 5.22228L20.0562 5.34169ZM27.4536 5.98121C27.1608 5.68843 26.9014 5.42733 26.6635 5.24377C26.4121 5.04975 26.1239 4.89269 25.762 4.87464L25.7023 6.07315C25.7253 6.0743 25.7815 6.0789 25.9304 6.1938C26.0929 6.31917 26.2896 6.51427 26.6051 6.82974L27.4536 5.98121ZM24.7286 6.73615C25.0739 6.45363 25.2891 6.27908 25.4632 6.1705C25.6228 6.07099 25.6792 6.07201 25.7023 6.07315L25.762 4.87464C25.4002 4.8566 25.0978 4.9842 24.8283 5.15224C24.5733 5.31122 24.2892 5.5452 23.9687 5.8074L24.7286 6.73615ZM29.1925 11.0312C29.4547 10.7107 29.6887 10.4266 29.8477 10.1716C30.0157 9.90216 30.1433 9.59972 30.1253 9.2379L28.9268 9.29768C28.9279 9.32069 28.929 9.37711 28.8294 9.53671C28.7209 9.71084 28.5463 9.92602 28.2638 10.2713L29.1925 11.0312ZM28.1702 8.39484C28.4857 8.71031 28.6808 8.90705 28.8061 9.06952C28.921 9.21842 28.9256 9.27466 28.9268 9.29768L30.1253 9.2379C30.1073 8.87608 29.9502 8.58784 29.7562 8.33641C29.5726 8.09854 29.3115 7.83909 29.0187 7.54631L28.1702 8.39484ZM29.7776 13.7498C28.9406 13.6661 28.3816 13.6086 27.9979 13.512C27.6151 13.4157 27.5955 13.3256 27.593 13.3193L26.4843 13.7785C26.7107 14.3251 27.214 14.5522 27.7052 14.6758C28.1955 14.7991 28.8617 14.8642 29.6582 14.9438L29.7776 13.7498ZM27.9046 10.7103C27.3978 11.3298 26.9727 11.8468 26.7132 12.2808C26.4532 12.7155 26.2579 13.232 26.4843 13.7785L27.593 13.3193C27.5904 13.3131 27.5405 13.2355 27.7431 12.8967C27.9461 12.5572 28.3007 12.1212 28.8334 11.4702L27.9046 10.7103ZM32.6833 16.3933C32.6833 15.9792 32.6845 15.6112 32.6461 15.3132C32.6055 14.9982 32.5127 14.6833 32.2697 14.4147L31.3799 15.2199C31.3954 15.237 31.4319 15.28 31.4559 15.4666C31.4822 15.6701 31.4833 15.9472 31.4833 16.3933H32.6833ZM30.2226 15.0002C30.6666 15.0446 30.9422 15.0734 31.1421 15.1197C31.3253 15.1622 31.3645 15.2028 31.3799 15.2199L32.2697 14.4147C32.0266 14.1461 31.7225 14.0225 31.4131 13.9507C31.1204 13.8829 30.7541 13.8474 30.342 13.8062L30.2226 15.0002ZM30.342 21.1938C30.7541 21.1526 31.1204 21.1171 31.4131 21.0492C31.7225 20.9775 32.0266 20.8539 32.2697 20.5853L31.3799 19.7801C31.3645 19.7972 31.3253 19.8378 31.1421 19.8803C30.9422 19.9266 30.6666 19.9553 30.2226 19.9997L30.342 21.1938ZM31.4833 18.6067C31.4833 19.0528 31.4822 19.3299 31.4559 19.5334C31.4319 19.72 31.3954 19.763 31.3799 19.7801L32.2697 20.5853C32.5127 20.3167 32.6055 20.0018 32.6461 19.6868C32.6845 19.3888 32.6833 19.0207 32.6833 18.6067H31.4833ZM28.8339 23.5298C28.3012 22.8787 27.9466 22.4428 27.7436 22.1032C27.541 21.7645 27.5909 21.6868 27.5935 21.6806L26.4849 21.2214C26.2585 21.768 26.4538 22.2844 26.7137 22.7191C26.9732 23.1531 27.3983 23.6701 27.9052 24.2896L28.8339 23.5298ZM29.6588 20.0561C28.8623 20.1358 28.1961 20.2008 27.7057 20.3241C27.2145 20.4477 26.7113 20.6748 26.4849 21.2214L27.5935 21.6806C27.5961 21.6744 27.6157 21.5842 27.9985 21.4879C28.3822 21.3914 28.9411 21.3339 29.7782 21.2502L29.6588 20.0561ZM29.0188 27.453C29.3116 27.1602 29.5727 26.9008 29.7562 26.6629C29.9503 26.4115 30.1073 26.1233 30.1254 25.7614L28.9269 25.7017C28.9257 25.7247 28.9211 25.7809 28.8062 25.9298C28.6808 26.0923 28.4857 26.289 28.1703 26.6045L29.0188 27.453ZM28.2639 24.728C28.5464 25.0733 28.7209 25.2885 28.8295 25.4626C28.929 25.6222 28.928 25.6786 28.9269 25.7017L30.1254 25.7614C30.1434 25.3996 30.0158 25.0972 29.8478 24.8277C29.6888 24.5727 29.4548 24.2886 29.1926 23.9681L28.2639 24.728ZM23.9688 29.1919C24.2893 29.4541 24.5734 29.6881 24.8284 29.8471C25.0978 30.0151 25.4003 30.1427 25.7621 30.1247L25.7023 28.9262C25.6793 28.9273 25.6229 28.9283 25.4633 28.8288C25.2892 28.7202 25.074 28.5457 24.7287 28.2632L23.9688 29.1919ZM26.6052 28.1696C26.2897 28.4851 26.093 28.6802 25.9305 28.8055C25.7816 28.9204 25.7253 28.925 25.7023 28.9262L25.7621 30.1247C26.1239 30.1066 26.4122 29.9496 26.6636 29.7556C26.9015 29.572 27.1609 29.3109 27.4537 29.0181L26.6052 28.1696ZM21.2503 29.777C21.334 28.94 21.3915 28.381 21.488 27.9974C21.5843 27.6146 21.6745 27.595 21.6807 27.5924L21.2215 26.4837C20.6749 26.7101 20.4478 27.2134 20.3243 27.7046C20.2009 28.195 20.1359 28.8612 20.0562 29.6576L21.2503 29.777ZM24.2898 27.9041C23.6702 27.3972 23.1532 26.9721 22.7192 26.7126C22.2845 26.4526 21.7681 26.2573 21.2215 26.4837L21.6807 27.5924C21.687 27.5898 21.7646 27.5399 22.1034 27.7425C22.4429 27.9455 22.8788 28.3001 23.5299 28.8328L24.2898 27.9041ZM18.6067 32.6833C19.0208 32.6833 19.3888 32.6845 19.6868 32.6461C20.0018 32.6055 20.3167 32.5127 20.5853 32.2696L19.7801 31.3799C19.763 31.3954 19.72 31.4319 19.5334 31.4559C19.3299 31.4822 19.0528 31.4833 18.6067 31.4833V32.6833ZM19.9997 30.2226C19.9554 30.6666 19.9266 30.9421 19.8803 31.142C19.8378 31.3253 19.7972 31.3644 19.7801 31.3799L20.5853 32.2696C20.8539 32.0266 20.9775 31.7225 21.0493 31.4131C21.1171 31.1204 21.1526 30.754 21.1938 30.342L19.9997 30.2226ZM13.8062 30.342C13.8474 30.754 13.8829 31.1204 13.9507 31.4131C14.0225 31.7225 14.1461 32.0266 14.4147 32.2696L15.2199 31.3799C15.2028 31.3644 15.1622 31.3253 15.1197 31.142C15.0734 30.9421 15.0447 30.6666 15.0003 30.2226L13.8062 30.342ZM16.3933 31.4833C15.9472 31.4833 15.6701 31.4822 15.4666 31.4559C15.28 31.4319 15.237 31.3954 15.2199 31.3799L14.4147 32.2696C14.6833 32.5127 14.9982 32.6055 15.3132 32.6461C15.6112 32.6845 15.9793 32.6833 16.3933 32.6833V31.4833ZM11.4702 28.8334C12.1213 28.3007 12.5572 27.9461 12.8967 27.7431C13.2355 27.5405 13.3131 27.5904 13.3193 27.593L13.7786 26.4843C13.232 26.2579 12.7155 26.4532 12.2808 26.7132C11.8469 26.9727 11.3298 27.3978 10.7103 27.9046L11.4702 28.8334ZM14.9438 29.6582C14.8642 28.8617 14.7992 28.1955 14.6758 27.7052C14.5522 27.214 14.3251 26.7107 13.7786 26.4843L13.3193 27.593C13.3256 27.5955 13.4157 27.6151 13.5121 27.9979C13.6086 28.3816 13.6661 28.9406 13.7498 29.7776L14.9438 29.6582ZM7.54626 29.0188C7.83904 29.3116 8.09849 29.5727 8.33636 29.7562C8.58779 29.9502 8.87603 30.1073 9.23785 30.1253L9.29762 28.9268C9.27461 28.9257 9.21837 28.9211 9.06946 28.8062C8.907 28.6808 8.71025 28.4857 8.39478 28.1703L7.54626 29.0188ZM10.2713 28.2638C9.92597 28.5464 9.71079 28.7209 9.53666 28.8295C9.37706 28.929 9.32064 28.928 9.29762 28.9268L9.23785 30.1253C9.59967 30.1434 9.9021 30.0158 10.1716 29.8478C10.4265 29.6888 10.7107 29.4548 11.0312 29.1926L10.2713 28.2638ZM5.80735 23.9688C5.54515 24.2893 5.31117 24.5734 5.15219 24.8283C4.98415 25.0978 4.85655 25.4003 4.87459 25.7621L6.0731 25.7023C6.07195 25.6793 6.07093 25.6229 6.17045 25.4633C6.27903 25.2892 6.45358 25.074 6.73609 24.7287L5.80735 23.9688ZM6.82969 26.6052C6.51422 26.2897 6.31912 26.0929 6.19375 25.9305C6.07885 25.7816 6.07425 25.7253 6.0731 25.7023L4.87459 25.7621C4.89264 26.1239 5.0497 26.4122 5.24372 26.6636C5.42728 26.9015 5.68837 27.1609 5.98116 27.4537L6.82969 26.6052ZM5.22229 21.2502C6.05934 21.3339 6.6183 21.3914 7.00196 21.4879C7.38476 21.5842 7.40437 21.6744 7.40695 21.6806L8.51561 21.2214C8.2892 20.6748 7.78594 20.4478 7.29473 20.3242C6.80436 20.2008 6.13818 20.1358 5.34169 20.0562L5.22229 21.2502ZM7.09527 24.2897C7.60215 23.6702 8.02724 23.1531 8.28675 22.7192C8.54671 22.2844 8.74201 21.768 8.51561 21.2214L7.40695 21.6806C7.40953 21.6869 7.45943 21.7645 7.25684 22.1033C7.05381 22.4428 6.69922 22.8787 6.16652 23.5298L7.09527 24.2897ZM2.31667 18.6067C2.31667 19.0207 2.31551 19.3888 2.35391 19.6868C2.39451 20.0018 2.48726 20.3167 2.73035 20.5853L3.62009 19.7801C3.60463 19.763 3.56811 19.72 3.54407 19.5334C3.51784 19.3299 3.51667 19.0528 3.51667 18.6067H2.31667ZM4.77737 19.9997C4.33344 19.9553 4.05786 19.9266 3.85795 19.8803C3.67473 19.8378 3.63555 19.7972 3.62009 19.7801L2.73035 20.5853C2.97343 20.8539 3.27752 20.9775 3.5869 21.0492C3.87959 21.1171 4.24596 21.1526 4.65796 21.1938L4.77737 19.9997ZM4.65796 13.8062C4.24596 13.8474 3.87959 13.8829 3.5869 13.9507C3.27752 14.0225 2.97343 14.1461 2.73035 14.4147L3.62009 15.2199C3.63555 15.2028 3.67473 15.1622 3.85795 15.1197C4.05786 15.0734 4.33344 15.0446 4.77737 15.0002L4.65796 13.8062ZM3.51667 16.3933C3.51667 15.9472 3.51784 15.6701 3.54407 15.4666C3.56811 15.28 3.60463 15.237 3.62009 15.2199L2.73035 14.4147C2.48726 14.6833 2.39451 14.9982 2.35391 15.3132C2.31551 15.6112 2.31667 15.9792 2.31667 16.3933H3.51667ZM6.16707 11.4701C6.69977 12.1212 7.05436 12.5571 7.2574 12.8966C7.45998 13.2354 7.41008 13.3131 7.4075 13.3193L8.51616 13.7785C8.74256 13.2319 8.54726 12.7155 8.2873 12.2808C8.02779 11.8468 7.6027 11.3298 7.09582 10.7102L6.16707 11.4701ZM5.34224 14.9438C6.13873 14.8641 6.80492 14.7991 7.29528 14.6757C7.78649 14.5522 8.28975 14.3251 8.51616 13.7785L7.4075 13.3193C7.40492 13.3255 7.38531 13.4157 7.00251 13.512C6.61886 13.6085 6.05989 13.666 5.22284 13.7497L5.34224 14.9438ZM5.98122 7.54565C5.68844 7.83843 5.42735 8.09788 5.24379 8.33575C5.04977 8.58718 4.8927 8.87542 4.87466 9.23724L6.07317 9.29702C6.07432 9.274 6.07891 9.21776 6.19382 9.06885C6.31919 8.90639 6.51428 8.70964 6.82975 8.39418L5.98122 7.54565ZM6.73616 10.2707C6.45365 9.92536 6.2791 9.71018 6.17052 9.53605C6.071 9.37645 6.07202 9.32003 6.07317 9.29702L4.87466 9.23724C4.85661 9.59906 4.98421 9.90149 5.15225 10.171C5.31123 10.4259 5.54521 10.7101 5.80741 11.0305L6.73616 10.2707ZM11.0312 5.80674C10.7108 5.54454 10.4266 5.31056 10.1717 5.15158C9.90217 4.98354 9.59974 4.85594 9.23791 4.87398L9.29769 6.07249C9.3207 6.07135 9.37713 6.07032 9.53672 6.16984C9.71086 6.27842 9.92604 6.45297 10.2713 6.73549L11.0312 5.80674ZM8.39485 6.82908C8.71032 6.51361 8.90706 6.31851 9.06953 6.19314C9.21843 6.07824 9.27468 6.07364 9.29769 6.07249L9.23791 4.87398C8.87609 4.89203 8.58785 5.04909 8.33642 5.24311C8.09855 5.42667 7.83911 5.68777 7.54632 5.98055L8.39485 6.82908ZM13.7498 5.22171C13.6661 6.05876 13.6086 6.61773 13.5121 7.00138C13.4158 7.38419 13.3256 7.40379 13.3194 7.40638L13.7786 8.51503C14.3252 8.28863 14.5523 7.78536 14.6759 7.29415C14.7992 6.80379 14.8642 6.1376 14.9439 5.34112L13.7498 5.22171ZM10.7104 7.0947C11.3299 7.60158 11.8469 8.02667 12.2809 8.28617C12.7156 8.54613 13.232 8.74143 13.7786 8.51503L13.3194 7.40638C13.3132 7.40896 13.2355 7.45886 12.8968 7.25627C12.5572 7.05323 12.1213 6.69864 11.4703 6.16595L10.7104 7.0947ZM18.6067 3.51666C19.0528 3.51666 19.3299 3.51782 19.5334 3.54405C19.72 3.56809 19.763 3.60461 19.7801 3.62008L20.5853 2.73033C20.3167 2.48725 20.0018 2.39449 19.6868 2.3539C19.3888 2.31549 19.0208 2.31666 18.6067 2.31666V3.51666ZM21.1938 4.65795C21.1526 4.24594 21.1171 3.87958 21.0493 3.58688C20.9775 3.2775 20.8539 2.97342 20.5853 2.73033L19.7801 3.62008C19.7972 3.63554 19.8378 3.67471 19.8803 3.85793C19.9266 4.05784 19.9554 4.33342 19.9997 4.77735L21.1938 4.65795ZM16.3933 2.31666C15.9793 2.31666 15.6112 2.31549 15.3132 2.3539C14.9982 2.39449 14.6833 2.48725 14.4147 2.73033L15.2199 3.62008C15.237 3.60461 15.28 3.56809 15.4666 3.54405C15.6701 3.51782 15.9472 3.51666 16.3933 3.51666V2.31666ZM15.0003 4.77735C15.0447 4.33343 15.0734 4.05784 15.1197 3.85793C15.1622 3.67471 15.2028 3.63554 15.2199 3.62008L14.4147 2.73033C14.1461 2.97342 14.0225 3.2775 13.9507 3.58688C13.8829 3.87958 13.8474 4.24594 13.8062 4.65795L15.0003 4.77735Z" fill="#878B9A"/>
<circle cx="17.5" cy="17.5" r="5.33333" stroke="#858B9C"/>
</svg>
